# This file uses centimeters as units for non-parametric coordinates.

mtllib CristalesGYM.mtl
v 8.094463 0.018600 14.104246
v 8.094463 2.451400 14.104246
v 15.618168 2.451400 14.104345
v 15.618168 0.018600 14.104345
v 8.094463 2.451400 14.112045
v 15.618168 2.451400 14.112150
v 8.094463 0.018600 14.112045
v 15.618168 0.018600 14.112146
v 8.072100 0.034507 5.598800
v 8.072100 2.456329 5.598800
v 11.978800 2.456329 5.598800
v 11.978800 0.034507 5.598800
v 8.072100 2.456329 5.644800
v 11.978800 2.456329 5.644800
v 8.072100 0.034507 5.644800
v 11.978800 0.034507 5.644800
v 15.590214 -0.007994 14.093616
v 15.590214 2.476564 14.093616
v 15.590314 2.476564 5.612777
v 15.590314 -0.007994 5.612777
v 15.598014 2.476564 14.093616
v 15.598118 2.476564 5.612777
v 15.598014 -0.007994 14.093616
v 15.598114 -0.007994 5.612777
v 8.074739 -0.007994 14.093616
v 8.074739 2.476564 14.093616
v 8.074639 2.476564 5.612777
v 8.074639 -0.007994 5.612777
v 8.066939 2.476564 14.093616
v 8.066939 -0.007994 14.093616
v 8.066839 -0.007994 5.612777
v 8.066835 2.476564 5.612777
vt 0.625000 0.000000
vt 0.625000 0.250000
vt 0.375000 0.250000
vt 0.375000 0.000000
vt 0.625000 0.500000
vt 0.375000 0.500000
vt 0.625000 0.750000
vt 0.375000 0.750000
vt 0.625000 1.000000
vt 0.375000 1.000000
vt 0.875000 0.000000
vt 0.875000 0.250000
vt 0.125000 0.250000
vt 0.125000 0.000000
vt 0.625000 0.000000
vt 0.625000 0.250000
vt 0.375000 0.250000
vt 0.375000 0.000000
vt 0.625000 0.500000
vt 0.375000 0.500000
vt 0.625000 0.750000
vt 0.375000 0.750000
vt 0.625000 1.000000
vt 0.375000 1.000000
vt 0.875000 0.000000
vt 0.875000 0.250000
vt 0.125000 0.250000
vt 0.125000 0.000000
vt 0.625000 0.000000
vt 0.625000 0.250000
vt 0.375000 0.250000
vt 0.375000 0.000000
vt 0.625000 0.500000
vt 0.375000 0.500000
vt 0.625000 0.750000
vt 0.375000 0.750000
vt 0.625000 1.000000
vt 0.375000 1.000000
vt 0.875000 0.000000
vt 0.875000 0.250000
vt 0.125000 0.250000
vt 0.125000 0.000000
vt 0.625000 0.000000
vt 0.375000 0.250000
vt 0.625000 0.250000
vt 0.375000 0.000000
vt 0.625000 0.500000
vt 0.375000 0.750000
vt 0.625000 0.750000
vt 0.375000 0.500000
vn 0.000000 0.000000 -1.000000
vn 0.000000 0.000000 -1.000000
vn 0.000000 0.000000 -1.000000
vn 0.000000 0.000000 -1.000000
vn 0.000000 0.000000 -1.000000
vn 0.000000 0.000000 -1.000000
vn 0.000000 1.000000 0.000000
vn 0.000000 1.000000 0.000000
vn 0.000000 1.000000 0.000000
vn 0.000000 1.000000 0.000000
vn 0.000000 1.000000 0.000000
vn 0.000000 1.000000 0.000000
vn 0.000000 0.000000 1.000000
vn 0.000000 0.000000 1.000000
vn 0.000000 0.000000 1.000000
vn 0.000000 0.000000 1.000000
vn 0.000000 0.000000 1.000000
vn 0.000000 0.000000 1.000000
vn 0.000000 -1.000000 0.000000
vn 0.000000 -1.000000 0.000000
vn 0.000000 -1.000000 0.000000
vn 0.000000 -1.000000 0.000000
vn 0.000000 -1.000000 0.000000
vn 0.000000 -1.000000 0.000000
vn -1.000000 0.000000 0.000000
vn -1.000000 0.000000 0.000000
vn -1.000000 0.000000 0.000000
vn -1.000000 0.000000 0.000000
vn -1.000000 0.000000 0.000000
vn -1.000000 0.000000 0.000000
vn 1.000000 0.000000 0.000000
vn 1.000000 0.000000 0.000000
vn 1.000000 0.000000 0.000000
vn 1.000000 0.000000 0.000000
vn 1.000000 0.000000 0.000000
vn 1.000000 0.000000 0.000000
vn 0.000000 0.000000 -1.000000
vn 0.000000 0.000000 -1.000000
vn 0.000000 0.000000 -1.000000
vn 0.000000 0.000000 -1.000000
vn 0.000000 0.000000 -1.000000
vn 0.000000 0.000000 -1.000000
vn 0.000000 1.000000 0.000000
vn 0.000000 1.000000 0.000000
vn 0.000000 1.000000 0.000000
vn 0.000000 1.000000 0.000000
vn 0.000000 1.000000 0.000000
vn 0.000000 1.000000 0.000000
vn 0.000000 0.000000 1.000000
vn 0.000000 0.000000 1.000000
vn 0.000000 0.000000 1.000000
vn 0.000000 0.000000 1.000000
vn 0.000000 0.000000 1.000000
vn 0.000000 0.000000 1.000000
vn 0.000000 -1.000000 0.000000
vn 0.000000 -1.000000 0.000000
vn 0.000000 -1.000000 0.000000
vn 0.000000 -1.000000 0.000000
vn 0.000000 -1.000000 0.000000
vn 0.000000 -1.000000 0.000000
vn -1.000000 0.000000 0.000000
vn -1.000000 0.000000 0.000000
vn -1.000000 0.000000 0.000000
vn -1.000000 0.000000 0.000000
vn -1.000000 0.000000 0.000000
vn -1.000000 0.000000 0.000000
vn 1.000000 0.000000 0.000000
vn 1.000000 0.000000 0.000000
vn 1.000000 0.000000 0.000000
vn 1.000000 0.000000 0.000000
vn 1.000000 0.000000 0.000000
vn 1.000000 0.000000 0.000000
vn -1.000000 0.000000 0.000000
vn -1.000000 0.000000 0.000000
vn -1.000000 0.000000 0.000000
vn -1.000000 0.000000 0.000000
vn -1.000000 0.000000 0.000000
vn -1.000000 0.000000 0.000000
vn 0.000000 1.000000 0.000000
vn 0.000000 1.000000 0.000000
vn 0.000000 1.000000 0.000000
vn 0.000000 1.000000 0.000000
vn 0.000000 1.000000 0.000000
vn 0.000000 1.000000 0.000000
vn 1.000000 0.000000 0.000000
vn 1.000000 0.000000 0.000000
vn 1.000000 0.000000 0.000000
vn 1.000000 0.000000 0.000000
vn 1.000000 0.000000 0.000000
vn 1.000000 0.000000 0.000000
vn 0.000000 -1.000000 0.000000
vn 0.000000 -1.000000 0.000000
vn 0.000000 -1.000000 0.000000
vn 0.000000 -1.000000 0.000000
vn 0.000000 -1.000000 0.000000
vn 0.000000 -1.000000 0.000000
vn 0.000000 0.000000 1.000000
vn 0.000000 0.000000 1.000000
vn 0.000000 0.000000 1.000000
vn 0.000000 0.000000 1.000000
vn 0.000000 0.000000 1.000000
vn 0.000000 0.000000 1.000000
vn 0.000000 0.000000 -1.000000
vn 0.000000 0.000000 -1.000000
vn 0.000000 0.000000 -1.000000
vn 0.000000 0.000000 -1.000000
vn 0.000000 0.000000 -1.000000
vn 0.000000 0.000000 -1.000000
vn 1.000000 0.000000 0.000000
vn 1.000000 0.000000 0.000000
vn 1.000000 0.000000 0.000000
vn 1.000000 0.000000 0.000000
vn 1.000000 0.000000 0.000000
vn 1.000000 0.000000 0.000000
vn -1.000000 0.000000 0.000000
vn -1.000000 0.000000 0.000000
vn -1.000000 0.000000 0.000000
vn -1.000000 0.000000 0.000000
vn -1.000000 0.000000 0.000000
vn -1.000000 0.000000 0.000000
s off
usemtl CristalesGYM:Material__194
f 1/1/1 2/2/2 3/3/3
f 3/3/4 4/4/5 1/1/6
f 2/2/7 5/5/8 6/6/9
f 6/6/10 3/3/11 2/2/12
f 5/5/13 7/7/14 8/8/15
f 8/8/16 6/6/17 5/5/18
f 7/7/19 1/9/20 4/10/21
f 4/10/22 8/8/23 7/7/24
f 7/11/25 5/12/26 2/2/27
f 2/2/28 1/1/29 7/11/30
f 4/4/31 3/3/32 6/13/33
f 6/13/34 8/14/35 4/4/36
f 9/15/37 10/16/38 11/17/39
f 11/17/40 12/18/41 9/15/42
f 10/16/43 13/19/44 14/20/45
f 14/20/46 11/17/47 10/16/48
f 13/19/49 15/21/50 16/22/51
f 16/22/52 14/20/53 13/19/54
f 15/21/55 9/23/56 12/24/57
f 12/24/58 16/22/59 15/21/60
f 15/25/61 13/26/62 10/16/63
f 10/16/64 9/15/65 15/25/66
f 12/18/67 11/17/68 14/27/69
f 14/27/70 16/28/71 12/18/72
f 17/29/73 18/30/74 19/31/75
f 19/31/76 20/32/77 17/29/78
f 18/30/79 21/33/80 22/34/81
f 22/34/82 19/31/83 18/30/84
f 21/33/85 23/35/86 24/36/87
f 24/36/88 22/34/89 21/33/90
f 23/35/91 17/37/92 20/38/93
f 20/38/94 24/36/95 23/35/96
f 23/39/97 21/40/98 18/30/99
f 18/30/100 17/29/101 23/39/102
f 20/32/103 19/31/104 22/41/105
f 22/41/106 24/42/107 20/32/108
f 25/43/109 27/44/110 26/45/111
f 27/44/112 25/43/113 28/46/114
f 29/47/115 31/48/116 30/49/117
f 31/48/118 29/47/119 32/50/120
