# 3ds Max Wavefront OBJ Exporter v0.99 - (c)2007 guruware
# File Created: 06.11.2024 12:04:28

mtllib gym.mtl

#
# object MurosGYM
#

v  14.7576 2.5068 5.6397
v  15.6079 2.5068 5.6382
v  15.6077 2.5068 5.5748
v  14.7574 2.5068 5.5763
v  15.6079 0.0242 5.6382
v  15.6077 0.0242 5.5748
v  14.7576 0.0242 5.6397
v  14.7574 0.0242 5.5763
v  15.6081 0.0181 5.5742
v  15.6096 0.0181 6.4245
v  15.5462 0.0181 6.4247
v  15.5447 0.0181 5.5744
v  15.6096 2.5118 6.4245
v  15.5462 2.5118 6.4247
v  15.6081 2.5118 5.5742
v  15.5447 2.5118 5.5744
v  8.0454 2.5073 14.1417
v  15.5964 2.5073 14.1282
v  15.5811 2.5073 5.5812
v  8.0301 2.5073 5.5947
v  15.5964 2.4523 14.1282
v  15.5811 2.4523 5.5812
v  8.0454 2.4523 14.1417
v  8.0301 2.4523 5.5947
v  8.0374 0.0445 14.1417
v  8.0374 2.5038 14.1417
v  8.0221 2.5038 5.5948
v  8.0221 0.0445 5.5948
v  8.0924 2.5038 14.1416
v  8.0771 2.5038 5.5947
v  8.0924 0.0445 14.1416
v  8.0771 0.0445 5.5947
v  8.0693 0.0212 14.0900
v  8.0693 2.5044 14.0900
v  15.6184 2.5044 14.0764
v  15.6184 0.0212 14.0764
v  8.0694 2.5044 14.1450
v  15.6185 2.5044 14.1314
v  8.0694 0.0212 14.1450
v  15.6185 0.0212 14.1314
# 40 vertices

vn 0.0000 1.0000 -0.0000
vn 1.0000 0.0000 -0.0018
vn 0.0000 -1.0000 -0.0000
vn -1.0000 0.0000 0.0018
vn 0.0018 0.0000 1.0000
vn -0.0018 0.0000 -1.0000
# 6 vertex normals

vt 2.7160 -1.7453 1.3689
vt 2.5035 -1.7453 1.3689
vt 2.5035 -1.7559 1.3689
vt 2.7160 -1.7559 1.3689
vt 2.7453 1.3689 2.5035
vt 2.7453 0.5414 2.5035
vt 2.7559 0.5414 2.5035
vt 2.7559 1.3689 2.5035
vt -1.5035 -1.7453 0.5414
vt -1.7160 -1.7453 0.5414
vt -1.7160 -1.7559 0.5414
vt -1.5035 -1.7559 0.5414
vt -1.7453 0.5414 2.7160
vt -1.7453 1.3689 2.7160
vt -1.7559 1.3689 2.7160
vt -1.7559 0.5414 2.7160
vt -1.7160 0.5414 -1.7453
vt -1.5035 0.5414 -1.7453
vt -1.5035 1.3689 -1.7453
vt -1.7160 1.3689 -1.7453
vt 2.7160 1.3689 -1.7559
vt 2.5035 1.3689 -1.7559
vt 2.5035 0.5414 -1.7559
vt 2.7160 0.5414 -1.7559
vt -1.5034 -1.7560 0.5394
vt -1.5034 -1.6143 0.5394
vt -1.5192 -1.6143 0.5394
vt -1.5192 -1.7560 0.5394
vt -1.5034 0.5394 -1.6143
vt -1.5034 1.3706 -1.6143
vt -1.5192 1.3706 -1.6143
vt -1.5192 0.5394 -1.6143
vt 2.5034 -1.6143 1.3706
vt 2.5034 -1.7560 1.3706
vt 2.5192 -1.7560 1.3706
vt 2.5192 -1.6143 1.3706
vt 2.5034 1.3706 -1.7560
vt 2.5034 0.5394 -1.7560
vt 2.5192 0.5394 -1.7560
vt 2.5192 1.3706 -1.7560
vt 2.7560 1.3706 2.5034
vt 2.6143 1.3706 2.5034
vt 2.6143 0.5394 2.5034
vt 2.7560 0.5394 2.5034
vt -1.7560 0.5394 2.5192
vt -1.6143 0.5394 2.5192
vt -1.6143 1.3706 2.5192
vt -1.7560 1.3706 2.5192
vt 4.3979 -0.3303 1.3691
vt 2.5101 -0.3303 1.3691
vt 2.5101 -1.7548 1.3691
vt 4.3979 -1.7548 1.3691
vt 1.3303 1.3691 2.5101
vt 1.3303 1.3508 2.5101
vt 2.7548 1.3508 2.5101
vt 2.7548 1.3691 2.5101
vt -1.5101 -0.3303 1.3508
vt -3.3979 -0.3303 1.3508
vt -3.3979 -1.7548 1.3508
vt -1.5101 -1.7548 1.3508
vt -0.3303 1.3508 4.3979
vt -0.3303 1.3691 4.3979
vt -1.7548 1.3691 4.3979
vt -1.7548 1.3508 4.3979
vt -3.3979 1.3508 -0.3303
vt -1.5101 1.3508 -0.3303
vt -1.5101 1.3691 -0.3303
vt -3.3979 1.3691 -0.3303
vt 4.3979 1.3691 -1.7548
vt 2.5101 1.3691 -1.7548
vt 2.5101 1.3508 -1.7548
vt 4.3979 1.3508 -1.7548
vt -0.3303 0.5482 4.3999
vt -0.3303 1.3679 4.3999
vt -1.7548 1.3679 4.3999
vt -1.7548 0.5482 4.3999
vt 4.3999 -0.3303 1.3679
vt 4.3861 -0.3303 1.3679
vt 4.3861 -1.7548 1.3679
vt 4.3999 -1.7548 1.3679
vt 1.3303 1.3679 4.3861
vt 1.3303 0.5482 4.3861
vt 2.7548 0.5482 4.3861
vt 2.7548 1.3679 4.3861
vt -3.3861 -0.3303 0.5482
vt -3.3999 -0.3303 0.5482
vt -3.3999 -1.7548 0.5482
vt -3.3861 -1.7548 0.5482
vt -3.3861 0.5482 -0.3303
vt -3.3861 1.3679 -0.3303
vt -3.3999 1.3679 -0.3303
vt -3.3999 0.5482 -0.3303
vt 4.3999 0.5482 -1.7548
vt 4.3999 1.3679 -1.7548
vt 4.3861 1.3679 -1.7548
vt 4.3861 0.5482 -1.7548
vt 4.3919 0.5404 -0.3389
vt 4.3919 1.3681 -0.3389
vt 2.5046 1.3681 -0.3389
vt 2.5046 0.5404 -0.3389
vt 4.3919 -0.3389 1.3681
vt 4.3919 -0.3298 1.3681
vt 2.5046 -0.3298 1.3681
vt 2.5046 -0.3389 1.3681
vt -3.3919 1.3681 -0.3298
vt -3.3919 0.5404 -0.3298
vt -1.5046 0.5404 -0.3298
vt -1.5046 1.3681 -0.3298
vt -3.3919 -0.3298 0.5404
vt -3.3919 -0.3389 0.5404
vt -1.5046 -0.3389 0.5404
vt -1.5046 -0.3298 0.5404
vt -0.3298 0.5404 4.3919
vt -0.3298 1.3681 4.3919
vt -0.3389 1.3681 4.3919
vt -0.3389 0.5404 4.3919
vt 1.3389 0.5404 2.5046
vt 1.3389 1.3681 2.5046
vt 1.3298 1.3681 2.5046
vt 1.3298 0.5404 2.5046
# 120 texture coords

o MurosGYM
g MurosGYM
usemtl Material__4373
s off
f 1/1/1 2/2/1 3/3/1 
f 3/3/1 4/4/1 1/1/1 
f 2/5/2 5/6/2 6/7/2 
f 6/7/2 3/8/2 2/5/2 
f 5/9/3 7/10/3 8/11/3 
f 8/11/3 6/12/3 5/9/3 
f 7/13/4 1/14/4 4/15/4 
f 4/15/4 8/16/4 7/13/4 
f 7/17/5 5/18/5 2/19/5 
f 2/19/5 1/20/5 7/17/5 
f 4/21/6 3/22/6 6/23/6 
f 6/23/6 8/24/6 4/21/6 
f 9/25/3 10/26/3 11/27/3 
f 11/27/3 12/28/3 9/25/3 
f 10/29/5 13/30/5 14/31/5 
f 14/31/5 11/32/5 10/29/5 
f 13/33/1 15/34/1 16/35/1 
f 16/35/1 14/36/1 13/33/1 
f 15/37/6 9/38/6 12/39/6 
f 12/39/6 16/40/6 15/37/6 
f 15/41/2 13/42/2 10/43/2 
f 10/43/2 9/44/2 15/41/2 
f 12/45/4 11/46/4 14/47/4 
f 14/47/4 16/48/4 12/45/4 
f 17/49/1 18/50/1 19/51/1 
f 19/51/1 20/52/1 17/49/1 
f 18/53/2 21/54/2 22/55/2 
f 22/55/2 19/56/2 18/53/2 
f 21/57/3 23/58/3 24/59/3 
f 24/59/3 22/60/3 21/57/3 
f 23/61/4 17/62/4 20/63/4 
f 20/63/4 24/64/4 23/61/4 
f 23/65/5 21/66/5 18/67/5 
f 18/67/5 17/68/5 23/65/5 
f 20/69/6 19/70/6 22/71/6 
f 22/71/6 24/72/6 20/69/6 
f 25/73/4 26/74/4 27/75/4 
f 27/75/4 28/76/4 25/73/4 
f 26/77/1 29/78/1 30/79/1 
f 30/79/1 27/80/1 26/77/1 
f 29/81/2 31/82/2 32/83/2 
f 32/83/2 30/84/2 29/81/2 
f 31/85/3 25/86/3 28/87/3 
f 28/87/3 32/88/3 31/85/3 
f 31/89/5 29/90/5 26/91/5 
f 26/91/5 25/92/5 31/89/5 
f 28/93/6 27/94/6 30/95/6 
f 30/95/6 32/96/6 28/93/6 
f 33/97/6 34/98/6 35/99/6 
f 35/99/6 36/100/6 33/97/6 
f 34/101/1 37/102/1 38/103/1 
f 38/103/1 35/104/1 34/101/1 
f 37/105/5 39/106/5 40/107/5 
f 40/107/5 38/108/5 37/105/5 
f 39/109/3 33/110/3 36/111/3 
f 36/111/3 40/112/3 39/109/3 
f 39/113/4 37/114/4 34/115/4 
f 34/115/4 33/116/4 39/113/4 
f 36/117/2 35/118/2 38/119/2 
f 38/119/2 40/120/2 36/117/2 
# 60 faces

#
# object PisoGYM
#

v  8.0592 0.0393 5.5988
v  8.0744 0.0393 14.0886
v  15.6209 0.0393 14.0751
v  15.6057 0.0393 5.5853
# 4 vertices

vn 0.0000 1.0000 -0.0000
# 1 vertex normals

vt 2.0189 -1.3649 0.5000
vt 2.0189 2.3649 0.5000
vt -1.0189 2.3649 0.5000
vt -1.0189 -1.3649 0.5000
# 4 texture coords

o PisoGYM
g PisoGYM
usemtl Material__27
s off
f 41/121/7 42/122/7 43/123/7 
f 43/123/7 44/124/7 41/121/7 
# 2 faces

