# 3ds Max Wavefront OBJ Exporter v0.99 - (c)2007 guruware
# File Created: 07.11.2024 01:41:53

mtllib CristalSPA.mtl

#
# object CristalSPA
#

v  9.9903 0.0627 -5.4759
v  9.9903 0.0627 -12.5463
v  10.0308 0.0627 -12.5463
v  10.0308 0.0627 -5.4759
v  9.9903 3.1222 -5.4759
v  10.0308 3.1222 -5.4759
v  10.0308 3.1222 -12.5463
v  9.9903 3.1222 -12.5463
v  15.4215 0.0516 -5.5005
v  15.4215 0.0516 -12.5002
v  15.4437 0.0516 -12.5002
v  15.4437 0.0516 -5.5005
v  15.4215 3.1112 -5.5005
v  15.4437 3.1112 -5.5005
v  15.4437 3.1112 -12.5002
v  15.4215 3.1112 -12.5002
# 16 vertices

vn 0.0000 -1.0000 -0.0000
vn 0.0000 1.0000 -0.0000
vn 0.0000 0.0000 1.0000
vn 1.0000 0.0000 -0.0000
vn 0.0000 0.0000 -1.0000
vn -1.0000 0.0000 -0.0000
# 6 vertex normals

vt 1.0000 0.0000 0.0036
vt 1.0000 1.0000 0.0036
vt 0.9926 1.0000 0.0036
vt 0.9926 0.0000 0.0036
vt 0.0000 0.0000 1.0000
vt 0.0074 0.0000 1.0000
vt 0.0074 1.0000 1.0000
vt 0.0000 1.0000 1.0000
vt 0.0000 0.0036 0.0000
vt 0.0074 0.0036 0.0000
vt 0.0074 1.0000 0.0000
vt 0.0000 1.0000 0.0000
vt 0.0000 0.0036 0.0074
vt 1.0000 0.0036 0.0074
vt 1.0000 1.0000 0.0074
vt 0.0000 1.0000 0.0074
vt 0.9926 0.0036 1.0000
vt 1.0000 0.0036 1.0000
vt 1.0000 1.0000 1.0000
vt 0.9926 1.0000 1.0000
vt 1.0000 0.0036 0.0000
vt 1.0000 1.0000 0.0000
vt 0.0041 0.0035 0.0000
vt 0.0041 0.9935 0.0000
vt 0.0000 0.9935 0.0000
vt 0.0000 0.0035 0.0000
vt 0.9959 0.0035 0.9964
vt 1.0000 0.0035 0.9964
vt 1.0000 0.9935 0.9964
vt 0.9959 0.9935 0.9964
vt 0.9959 0.0000 0.0035
vt 1.0000 0.0000 0.0035
vt 1.0000 0.9964 0.0035
vt 0.9959 0.9964 0.0035
vt 0.0035 0.0000 1.0000
vt 0.9935 0.0000 1.0000
vt 0.9935 0.9964 1.0000
vt 0.0035 0.9964 1.0000
vt 0.0000 0.0000 0.9935
vt 0.0041 0.0000 0.9935
vt 0.0041 0.9964 0.9935
vt 0.0000 0.9964 0.9935
vt 0.0065 0.0000 0.9959
vt 0.9965 0.0000 0.9959
vt 0.9965 0.9964 0.9959
vt 0.0065 0.9964 0.9959
# 46 texture coords

o CristalSPA
g CristalSPA
usemtl Material__194
s 2
f 1/1/1 2/2/1 3/3/1 
f 3/3/1 4/4/1 1/1/1 
s 4
f 5/5/2 6/6/2 7/7/2 
f 7/7/2 8/8/2 5/5/2 
s 8
f 1/9/3 4/10/3 6/11/3 
f 6/11/3 5/12/3 1/9/3 
s 16
f 4/13/4 3/14/4 7/15/4 
f 7/15/4 6/16/4 4/13/4 
s 32
f 3/17/5 2/18/5 8/19/5 
f 8/19/5 7/20/5 3/17/5 
s 64
f 2/9/6 1/21/6 5/22/6 
f 5/22/6 8/12/6 2/9/6 
s 2
f 9/23/1 10/24/1 11/25/1 
f 11/25/1 12/26/1 9/23/1 
s 4
f 13/27/2 14/28/2 15/29/2 
f 15/29/2 16/30/2 13/27/2 
s 8
f 9/31/3 12/32/3 14/33/3 
f 14/33/3 13/34/3 9/31/3 
s 16
f 12/35/4 11/36/4 15/37/4 
f 15/37/4 14/38/4 12/35/4 
s 32
f 11/39/5 10/40/5 16/41/5 
f 16/41/5 15/42/5 11/39/5 
s 64
f 10/43/6 9/44/6 13/45/6 
f 13/45/6 16/46/6 10/43/6 
# 24 faces

